<svg xmlns="http://www.w3.org/2000/svg" viewBox="0 0 512 512">
  <defs><radialGradient id="sky" cx="50%" cy="0%" r="110%"><stop offset="0" stop-color="#1b2a4b"/><stop offset="0.7" stop-color="#0a111d"/></radialGradient></defs>
  <rect width="512" height="512" rx="112" fill="url(#sky)"/>
  <line x1="94.82" y1="256" x2="417.18" y2="256" stroke="#31415e" stroke-width="8.31" stroke-linecap="round"/>
  <path d="M112.64,256.00 L118.61,243.28 124.59,230.77 130.56,218.69 136.53,207.26 142.51,196.66 148.48,187.07 154.45,178.66 160.43,171.58 166.40,165.94 172.37,161.84 178.35,159.35 184.32,158.52 190.29,159.35 196.27,161.84 202.24,165.94 208.21,171.58 214.19,178.66 220.16,187.07 226.13,196.66 232.11,207.26 238.08,218.69 244.05,230.77 250.03,243.28 256.00,256.00 261.97,268.72 267.95,281.23 273.92,293.31 279.89,304.74 285.87,315.34 291.84,324.93 297.81,333.34 303.79,340.42 309.76,346.06 315.73,350.16 321.71,352.65 327.68,353.48 333.65,352.65 339.63,350.16 345.60,346.06 351.57,340.42 357.55,333.34 363.52,324.93 369.49,315.34 375.47,304.74 381.44,293.31 387.41,281.23 393.39,268.72 399.36,256.00" fill="none" stroke="#86a8ff" stroke-width="29.70" stroke-linecap="round" stroke-linejoin="round"/>
  <circle cx="399.36" cy="256" r="28.21" fill="#43c795"/>
</svg>
